<svg width="135" height="24" xmlns="http://www.w3.org/2000/svg"><g fill-rule="nonzero" fill="none"><path d="M58.925 15.963v-4.909c0-1.852-1.183-3.1-3.087-3.115a3.04 3.04 0 0 0-2.757 1.394 2.882 2.882 0 0 0-2.592-1.394 2.597 2.597 0 0 0-2.295 1.165v-.982h-1.707v7.841h1.724V11.62c0-1.361.754-2.081 1.92-2.081 1.167 0 1.708.736 1.708 2.065v4.36h1.714V11.62c0-1.361.787-2.081 1.92-2.081 1.135 0 1.725.736 1.725 2.065v4.36h1.727zm25.51-7.835h-2.789V5.752h-1.724v2.376h-1.593v1.558h1.593v3.57c0 1.82.705 2.904 2.724 2.904a4.016 4.016 0 0 0 2.134-.606l-.492-1.46a3.157 3.157 0 0 1-1.511.442c-.852 0-1.134-.523-1.134-1.309v-3.54h2.79l.002-1.559zm14.563-.196a2.315 2.315 0 0 0-2.068 1.149v-.953h-1.691v7.835h1.707v-4.392c0-1.309.557-2.016 1.675-2.016.366-.005.729.062 1.069.197l.524-1.607a3.653 3.653 0 0 0-1.216-.213zm-22.016.818a5.874 5.874 0 0 0-3.202-.818c-1.987 0-3.278.952-3.278 2.507 0 1.28.95 2.065 2.707 2.31l.803.115c.935.13 1.38.376 1.38.818 0 .606-.622.953-1.79.953a4.187 4.187 0 0 1-2.621-.819l-.777 1.326a5.667 5.667 0 0 0 3.399 1.018c2.265 0 3.579-1.067 3.579-2.556 0-1.378-1.036-2.098-2.74-2.344l-.803-.114c-.738-.098-1.331-.246-1.331-.77 0-.572.557-.916 1.495-.916.859.013 1.7.244 2.445.671l.734-1.38zm45.73-.818a2.315 2.315 0 0 0-2.068 1.149v-.953h-1.692v7.835h1.708v-4.392c0-1.309.557-2.016 1.675-2.016.366-.005.729.062 1.068.197l.525-1.607a3.653 3.653 0 0 0-1.216-.213zm-21.99 4.114c0 2.376 1.659 4.114 4.186 4.114a4.114 4.114 0 0 0 2.822-.936l-.82-1.378c-.59.449-1.31.695-2.052.703-1.363 0-2.363-1.001-2.363-2.506 0-1.506 1.003-2.491 2.363-2.507a3.451 3.451 0 0 1 2.052.703l.82-1.378a4.114 4.114 0 0 0-2.822-.936c-2.527 0-4.186 1.738-4.186 4.114v.007zm15.989 0V8.119h-1.708v.952a2.978 2.978 0 0 0-2.478-1.149c-2.2 0-3.933 1.722-3.933 4.114s1.724 4.114 3.933 4.114A2.978 2.978 0 0 0 115.003 15v.95h1.708v-3.905zm-6.353 0c0-1.378.902-2.507 2.38-2.507 1.413 0 2.363 1.083 2.363 2.507 0 1.423-.95 2.507-2.363 2.507-1.478 0-2.38-1.133-2.38-2.507zM89.755 7.932c-2.294 0-3.907 1.672-3.907 4.114 0 2.49 1.675 4.114 4.022 4.114a4.774 4.774 0 0 0 3.218-1.1l-.835-1.263c-.652.52-1.46.809-2.295.818-1.101 0-2.1-.507-2.347-1.918h5.828c.016-.213.033-.425.033-.654 0-2.442-1.528-4.114-3.727-4.114l.01.003zm-.033 1.525c1.102 0 1.806.687 1.986 1.902h-4.067c.18-1.133.868-1.902 2.085-1.902h-.004zm42.823 2.589V4.98h-1.708v4.097a2.978 2.978 0 0 0-2.478-1.148c-2.199 0-3.933 1.721-3.933 4.114 0 2.392 1.724 4.113 3.933 4.113a2.978 2.978 0 0 0 2.478-1.148v.949h1.708v-3.911zm1.996 3.194a.502.502 0 0 1 .465.69.504.504 0 0 1-.268.266.492.492 0 0 1-.197.039.508.508 0 0 1-.472-.304.498.498 0 0 1 .479-.69l-.007-.001zm0 .884a.37.37 0 0 0 .272-.112.389.389 0 0 0-.121-.631.377.377 0 0 0-.151-.03.39.39 0 0 0-.279.661.39.39 0 0 0 .286.112h-.007zm.03-.622a.21.21 0 0 1 .137.04.13.13 0 0 1 .05.107.124.124 0 0 1-.04.095.184.184 0 0 1-.108.046l.15.173h-.117l-.141-.173h-.046v.173h-.099v-.458l.213-.003zm-.115.085v.124h.114c.02.006.042.006.063 0a.052.052 0 0 0 .023-.046.052.052 0 0 0-.023-.045.112.112 0 0 0-.063 0l-.114-.033zm-8.257-3.541c0-1.378.902-2.507 2.38-2.507 1.413 0 2.363 1.083 2.363 2.507 0 1.423-.95 2.507-2.363 2.507-1.478 0-2.38-1.133-2.38-2.507zm-57.654 0V8.119h-1.707v.952a2.978 2.978 0 0 0-2.468-1.139c-2.2 0-3.934 1.721-3.934 4.114 0 2.392 1.724 4.114 3.934 4.114a2.978 2.978 0 0 0 2.477-1.15v.95h1.708l-.01-3.914zm-6.352 0c0-1.378.902-2.507 2.38-2.507 1.412 0 2.363 1.083 2.363 2.507 0 1.423-.95 2.507-2.363 2.507-1.478 0-2.38-1.13-2.38-2.507z" fill="#231F20"/><path fill="#FF5F00" d="M14.372 2.732h10.325v18.527H14.372z"/><path d="M15.028 12a11.756 11.756 0 0 1 4.506-9.262C14.696-1.058 7.75-.505 3.574 4.008a11.769 11.769 0 0 0 0 15.987c4.175 4.513 11.122 5.066 15.96 1.27A11.756 11.756 0 0 1 15.028 12z" fill="#EB001B"/><path d="M38.627 12c0 4.51-2.58 8.626-6.643 10.597a11.814 11.814 0 0 1-12.45-1.335 11.775 11.775 0 0 0 4.509-9.264c0-3.615-1.662-7.03-4.509-9.263A11.814 11.814 0 0 1 31.985 1.4 11.78 11.78 0 0 1 38.627 12zM37.493 19.333v-.411h.154v-.082h-.384v.085h.154v.412l.076-.004zm.757 0v-.496h-.102l-.137.354-.138-.354h-.121v.496h.068v-.372l.128.323h.089l.128-.323v.376l.085-.004z" fill="#F79E1B"/></g></svg>