<svg width="73" height="24" xmlns="http://www.w3.org/2000/svg"><g fill-rule="nonzero" fill="none"><path fill="#00579F" d="M31.56 23.561h-5.873L29.36.706h5.873zM52.849 1.265C51.69.802 49.853.292 47.58.292c-5.799 0-9.883 3.112-9.908 7.561-.048 3.283 2.924 5.106 5.147 6.2 2.272 1.119 3.044 1.849 3.044 2.846-.023 1.531-1.836 2.237-3.526 2.237-2.345 0-3.601-.364-5.51-1.216l-.774-.365-.822 5.13c1.378.632 3.915 1.192 6.55 1.217 6.162 0 10.174-3.064 10.221-7.806.024-2.601-1.546-4.595-4.93-6.224-2.053-1.046-3.311-1.75-3.311-2.82.024-.973 1.064-1.97 3.382-1.97 1.91-.049 3.312.413 4.375.875l.531.243.799-4.935zM60.654 15.464C61.138 14.151 63 9.07 63 9.07c-.025.049.482-1.337.772-2.188l.41 1.969s1.113 5.47 1.354 6.613h-4.88zM67.904.706H63.36c-1.401 0-2.465.413-3.07 1.896l-8.723 20.959h6.162l1.233-3.429h7.54c.168.803.7 3.429.7 3.429h5.438L67.903.706zM20.782.706l-5.751 15.585-.629-3.16c-1.063-3.648-4.398-7.61-8.12-9.58l5.269 19.986h6.21l9.23-22.83h-6.209z"/><path d="M9.69.706H.242l-.097.462c7.37 1.896 12.252 6.468 14.257 11.963L12.348 2.627C12.01 1.167 10.971.754 9.69.707z" fill="#FAA61A"/></g></svg>